<?xml version="1.0" encoding="utf-8"?>
<!-- Generator: Adobe Illustrator 16.0.0, SVG Export Plug-In . SVG Version: 6.00 Build 0)  -->
<!DOCTYPE svg PUBLIC "-//W3C//DTD SVG 1.1//EN" "http://www.w3.org/Graphics/SVG/1.1/DTD/svg11.dtd">
<svg version="1.1" id="Layer_1" xmlns="http://www.w3.org/2000/svg" xmlns:xlink="http://www.w3.org/1999/xlink" x="0px" y="0px"
	 width="100px" height="100px" viewBox="0 0 100 100" enable-background="new 0 0 100 100" xml:space="preserve">
<rect fill="#C0C0C0" width="100" height="100"/>
<path fill="#FFFFFF" d="M80.639,43.168V32.512H59.611V54.96H47.25V100H93V43.168H80.639z M59.469,92.597h-5.683v-9.076h5.683V92.597
	z M59.469,81.21h-5.683v-9.075h5.683V81.21z M59.469,69.844h-5.683v-9.076h5.683V69.844z M72.967,92.606h-5.684v-9.075h5.684V92.606
	z M72.967,81.22h-5.684v-9.075h5.684V81.22z M72.967,69.854h-5.684v-9.075h5.684V69.854z M72.967,58.513h-5.684v-9.075h5.684V58.513
	z M72.967,47.146h-5.684v-9.075h5.684V47.146z M86.322,92.606h-5.684v-9.075h5.684V92.606z M86.322,81.22h-5.684v-9.075h5.684V81.22
	z M86.322,69.854h-5.684v-9.075h5.684V69.854z M86.322,58.513h-5.684v-9.075h5.684V58.513z"/>
</svg>
