<?xml version="1.0" encoding="utf-8"?>
<!-- Generator: Adobe Illustrator 16.0.0, SVG Export Plug-In . SVG Version: 6.00 Build 0)  -->
<!DOCTYPE svg PUBLIC "-//W3C//DTD SVG 1.1//EN" "http://www.w3.org/Graphics/SVG/1.1/DTD/svg11.dtd">
<svg version="1.1" id="Layer_1" xmlns="http://www.w3.org/2000/svg" xmlns:xlink="http://www.w3.org/1999/xlink" x="0px" y="0px"
	 width="148px" height="148px" viewBox="0 0 148 148" enable-background="new 0 0 148 148" xml:space="preserve">
<rect y="0" fill="#C0C0C0" width="148" height="148"/>
<g>
	<path fill-rule="evenodd" clip-rule="evenodd" fill="#FFFFFF" d="M85.082,89.725c-0.595,8.556-0.421,14.984-6.432,18.23
		c-5.91,3.191-11.626,0.28-16.421-3.13c-5.188-3.689-10.149-7.898-14.449-12.578c-4.507-4.903-4.143-9.523,0.239-14.395
		c5.733-6.375,12.983-10.338,21.344-12.066c5.01-1.036,10.299,2.238,11.973,7.811C83.163,79.676,84.236,85.98,85.082,89.725z"/>
	<path fill-rule="evenodd" clip-rule="evenodd" fill="#FFFFFF" d="M83.745,65.773c5.993-1.335,18.586,5.478,20.464,12.079
		c0.454,1.598,0.166,4.178-0.871,5.294c-4.095,4.411-8.621,8.421-13.19,12.772C87.827,84.996,85.787,75.393,83.745,65.773z"/>
	<path fill-rule="evenodd" clip-rule="evenodd" fill="#FFFFFF" d="M48.66,66.079c-5.549-0.086-10.667-5.366-10.376-10.703
		c0.277-5.088,5.707-10.065,10.845-9.943c5.503,0.133,10.547,5.474,10.325,10.935C59.236,61.698,54.271,66.166,48.66,66.079z"/>
	<path fill-rule="evenodd" clip-rule="evenodd" fill="#FFFFFF" d="M94.021,57.654c0.004-3.763,4.05-7.791,7.73-7.696
		c3.43,0.087,7.479,3.997,7.624,7.357c0.169,3.942-3.405,7.588-7.543,7.696C97.675,65.119,94.016,61.672,94.021,57.654z"/>
</g>
</svg>
