<?xml version="1.0" encoding="utf-8"?>
<!-- Generator: Adobe Illustrator 16.0.0, SVG Export Plug-In . SVG Version: 6.00 Build 0)  -->
<!DOCTYPE svg PUBLIC "-//W3C//DTD SVG 1.1//EN" "http://www.w3.org/Graphics/SVG/1.1/DTD/svg11.dtd">
<svg version="1.1" id="Layer_1" xmlns="http://www.w3.org/2000/svg" xmlns:xlink="http://www.w3.org/1999/xlink" x="0px" y="0px"
	 width="67px" height="40px" viewBox="0 0 67 40" enable-background="new 0 0 67 40" xml:space="preserve">
<g>
	<path fill-rule="evenodd" clip-rule="evenodd" fill="#EE2356" d="M64.554,19.251c0,0.248,0,0.494,0,0.742
		c-0.318,0.381-0.603,0.793-0.96,1.136c-3.669,3.529-7.35,7.045-11.03,10.564c-2.307,2.207-4.608,4.422-6.935,6.611
		c-0.285,0.268-0.676,0.516-1.056,0.588c-0.981,0.184-1.749-0.525-1.752-1.555c-0.011-2.455-0.006-4.912-0.006-7.369
		c0-0.951-0.418-1.355-1.406-1.355c-8.15-0.002-29.261-0.012-37.41,0.012c-0.971,0.002-1.697-0.242-2.107-1.119
		c0-5.256,0-10.511,0-15.766c0.378-0.848,1.062-1.121,2.005-1.118c6.808,0.021,26.577,0.012,33.384,0.012
		c1.407,0,2.813,0.005,4.22-0.003c0.874-0.004,1.301-0.422,1.313-1.26c0.006-0.263,0.001-0.525,0.001-0.788
		c0-2.224-0.006-4.449,0.005-6.674c0.003-1.03,0.768-1.743,1.751-1.554c0.405,0.079,0.82,0.357,1.126,0.647
		C51.702,6.715,57.69,12.44,63.673,18.173C64.008,18.493,64.263,18.891,64.554,19.251z"/>
</g>
<g>
	<path fill="#FFFFFF" d="M5.326,22.902c0.554,0.342,1.363,0.626,2.214,0.626c1.264,0,2.002-0.669,2.002-1.634
		c0-0.895-0.512-1.404-1.803-1.901c-1.562-0.554-2.527-1.363-2.527-2.713c0-1.49,1.235-2.598,3.095-2.598
		c0.98,0,1.69,0.228,2.116,0.469l-0.341,1.008c-0.313-0.17-0.951-0.454-1.817-0.454c-1.307,0-1.803,0.781-1.803,1.434
		c0,0.894,0.582,1.334,1.902,1.845c1.619,0.625,2.442,1.406,2.442,2.812c0,1.475-1.094,2.755-3.351,2.755
		c-0.923,0-1.931-0.27-2.442-0.611L5.326,22.902z"/>
	<path fill="#FFFFFF" d="M14.707,14.839v9.569h-1.235v-9.569H14.707z"/>
	<path fill="#FFFFFF" d="M25.126,23.98c-0.554,0.198-1.648,0.527-2.939,0.527c-1.449,0-2.641-0.368-3.578-1.264
		c-0.823-0.795-1.334-2.073-1.334-3.564c0.014-2.854,1.973-4.94,5.183-4.94c1.107,0,1.973,0.242,2.385,0.439l-0.298,1.009
		c-0.511-0.228-1.151-0.412-2.116-0.412c-2.328,0-3.848,1.448-3.848,3.847c0,2.43,1.463,3.862,3.692,3.862
		c0.809,0,1.363-0.112,1.646-0.255v-2.854h-1.945v-0.994h3.152V23.98z"/>
	<path fill="#FFFFFF" d="M27.989,24.408v-9.569h1.35l3.066,4.841c0.71,1.121,1.265,2.13,1.717,3.11l0.031-0.015
		c-0.115-1.277-0.143-2.443-0.143-3.933v-4.004h1.163v9.569h-1.249l-3.038-4.856c-0.668-1.065-1.306-2.158-1.789-3.194l-0.042,0.014
		c0.07,1.207,0.099,2.356,0.099,3.948v4.088H27.989z"/>
	<path fill="#FFFFFF" d="M43.527,14.839v5.665c0,2.144,0.954,3.053,2.23,3.053c1.419,0,2.328-0.939,2.328-3.053v-5.665h1.251v5.581
		c0,2.939-1.549,4.144-3.621,4.144c-1.96,0-3.438-1.121-3.438-4.088v-5.636H43.527z"/>
	<path fill="#FFFFFF" d="M52.452,14.952c0.599-0.1,1.38-0.185,2.373-0.185c1.221,0,2.116,0.284,2.684,0.795
		c0.525,0.455,0.838,1.149,0.838,2.002c0,0.866-0.256,1.548-0.739,2.044c-0.652,0.695-1.718,1.052-2.926,1.052
		c-0.368,0-0.708-0.016-0.992-0.087v3.833h-1.237V14.952z M53.689,19.567c0.271,0.071,0.609,0.099,1.022,0.099
		c1.49,0,2.399-0.724,2.399-2.044c0-1.263-0.896-1.874-2.258-1.874c-0.54,0-0.951,0.042-1.164,0.099V19.567z"/>
</g>
</svg>
