<?xml version="1.0" encoding="utf-8"?>
<!-- Generator: Adobe Illustrator 16.0.0, SVG Export Plug-In . SVG Version: 6.00 Build 0)  -->
<!DOCTYPE svg PUBLIC "-//W3C//DTD SVG 1.1//EN" "http://www.w3.org/Graphics/SVG/1.1/DTD/svg11.dtd">
<svg version="1.1" id="Layer_1" xmlns="http://www.w3.org/2000/svg" xmlns:xlink="http://www.w3.org/1999/xlink" x="0px" y="0px"
	 width="512px" height="512px" viewBox="0 0 512 512" enable-background="new 0 0 512 512" xml:space="preserve">
<path fill="#FD0051" d="M256,9C119.033,9,8,120.033,8,257s111.033,248,248,248s248-111.033,248-248S392.967,9,256,9z M256,486.194
	C129.419,486.194,26.806,383.58,26.806,257C26.806,130.419,129.419,27.806,256,27.806c126.58,0,229.194,102.613,229.194,229.194
	C485.194,383.58,382.58,486.194,256,486.194z"/>
<g>
	<g>
		<path fill="#FD0051" d="M348.303,282.647c-14.371-14.372-31.478-25.012-50.141-31.451c19.989-13.767,33.123-36.809,33.123-62.863
			c-0.001-42.062-34.222-76.284-76.285-76.284s-76.284,34.222-76.284,76.284c0,26.054,13.133,49.096,33.122,62.863
			c-18.664,6.439-35.771,17.079-50.141,31.451c-24.922,24.922-38.648,58.058-38.648,93.303h20.617
			c0-61.39,49.944-111.333,111.333-111.333c61.39,0,111.333,49.943,111.333,111.333h20.617
			C386.95,340.705,373.226,307.569,348.303,282.647z M255,244c-30.695,0-55.667-24.972-55.667-55.667s24.972-55.667,55.667-55.667
			c30.694,0,55.667,24.972,55.667,55.667S285.694,244,255,244z"/>
	</g>
</g>
</svg>
