<?xml version="1.0" encoding="utf-8"?>
<!-- Generator: Adobe Illustrator 16.0.0, SVG Export Plug-In . SVG Version: 6.00 Build 0)  -->
<!DOCTYPE svg PUBLIC "-//W3C//DTD SVG 1.1//EN" "http://www.w3.org/Graphics/SVG/1.1/DTD/svg11.dtd">
<svg version="1.1" id="Layer_1" xmlns="http://www.w3.org/2000/svg" xmlns:xlink="http://www.w3.org/1999/xlink" x="0px" y="0px"
	 width="100px" height="100px" viewBox="0 0 100 100" enable-background="new 0 0 100 100" xml:space="preserve">
<circle fill="none" stroke="#D1D3D4" stroke-width="3" stroke-miterlimit="10" cx="50" cy="50.122" r="47.287"/>
<path fill="#3468AD" d="M40.12,54.482h4.579v18.855c0,0.371,0.302,0.674,0.675,0.674h7.764c0.372,0,0.675-0.301,0.675-0.674V54.572
	h5.265c0.342,0,0.63-0.257,0.67-0.598l0.798-6.939c0.022-0.191-0.037-0.382-0.166-0.525c-0.128-0.143-0.311-0.225-0.503-0.225
	h-6.063v-4.352c0-1.312,0.707-1.976,2.1-1.976c0.199,0,3.966,0,3.966,0c0.372,0,0.674-0.302,0.674-0.674v-6.372
	c0-0.373-0.301-0.674-0.674-0.674h-5.465c-0.038-0.001-0.125-0.005-0.25-0.005c-0.947,0-4.244,0.186-6.846,2.581
	c-2.886,2.655-2.483,5.832-2.387,6.381v5.089h-4.809c-0.373,0-0.673,0.301-0.673,0.674v6.852
	C39.446,54.182,39.747,54.482,40.12,54.482z"/>
</svg>
