<?xml version="1.0" encoding="utf-8"?>
<!-- Generator: Adobe Illustrator 16.0.0, SVG Export Plug-In . SVG Version: 6.00 Build 0)  -->
<!DOCTYPE svg PUBLIC "-//W3C//DTD SVG 1.1//EN" "http://www.w3.org/Graphics/SVG/1.1/DTD/svg11.dtd">
<svg version="1.1" id="Layer_1" xmlns="http://www.w3.org/2000/svg" xmlns:xlink="http://www.w3.org/1999/xlink" x="0px" y="0px"
	 width="100px" height="100px" viewBox="0 0 100 100" enable-background="new 0 0 100 100" xml:space="preserve">
<circle fill-rule="evenodd" clip-rule="evenodd" fill="none" stroke="#D1D3D4" stroke-width="3" stroke-miterlimit="10" cx="50" cy="50.122" r="47.287"/>
<g>
	<path fill-rule="evenodd" clip-rule="evenodd" fill="#FFFFFF" d="M42.468,65.698c0.009,0.099,0.024,0.188,0.024,0.277
		c-0.005,2.048-0.012,4.096-0.021,6.145c-0.005,1.224-0.604,2.062-1.686,2.584c-0.19,0.093-0.434,0.141-0.558,0.289
		c-0.159,0.189-0.313,0.469-0.292,0.692c0.015,0.139,0.342,0.325,0.549,0.354c0.386,0.055,0.79,0.043,1.18,0.002
		c2.197-0.227,4.198-1.236,4.073-4.337c-0.082-2.046-0.061-4.098-0.003-6.145c0.021-0.771,0.255-1.541,0.443-2.3
		c0.056-0.227,0.286-0.411,0.436-0.615c0.041,0.022,0.08,0.042,0.121,0.064c0,0.162,0,0.324,0,0.487
		c-0.003,3.762-0.015,7.525-0.005,11.289c0.003,1.08-0.037,2.116-1.159,2.704c-0.05,0.026-0.109,0.084-0.118,0.134
		c-0.045,0.284-0.174,0.609-0.081,0.845c0.071,0.177,0.423,0.304,0.665,0.333c0.291,0.036,0.606-0.022,0.896-0.097
		c1.913-0.49,3.354-1.776,3.279-4.136c-0.049-1.546-0.018-3.096-0.019-4.644c0-2.413,0.002-4.825,0.003-7.238
		c0-0.292,0.034-0.569,0.415-0.574c0.391-0.005,0.465,0.269,0.472,0.585c0.003,0.121,0.001,0.242,0,0.364
		c-0.008,3.899-0.008,7.8-0.033,11.698c-0.009,1.182,0.341,2.185,1.277,2.929c0.823,0.655,1.754,1.088,2.825,1.104
		c0.38,0.005,0.735-0.138,0.839-0.563c0.095-0.394-0.153-0.626-0.428-0.878c-0.291-0.269-0.6-0.593-0.718-0.953
		c-0.182-0.551-0.279-1.154-0.283-1.734c-0.025-3.703-0.015-7.405-0.016-11.107c0-0.158,0.014-0.315,0.021-0.473
		c0.038-0.014,0.077-0.03,0.115-0.044c0.146,0.233,0.321,0.454,0.435,0.703c0.362,0.803,0.45,1.661,0.449,2.532
		c-0.004,2.108-0.019,4.218-0.004,6.327c0.01,1.444,0.643,2.532,1.962,3.183c0.977,0.483,2.022,0.637,3.095,0.563
		c0.228-0.017,0.565-0.219,0.623-0.405c0.057-0.184-0.162-0.468-0.295-0.687c-0.056-0.091-0.199-0.13-0.308-0.184
		c-1.208-0.598-1.792-1.599-1.828-2.917c-0.035-1.258-0.018-2.519-0.026-3.777c-0.012-1.715,0.008-3.43-0.054-5.143
		c-0.071-1.932-0.847-3.542-2.396-4.747c-0.029-0.022-0.039-0.069-0.075-0.14c0.126-0.016,0.227-0.028,0.326-0.04
		c1.915-0.222,3.808-0.552,5.642-1.167c3.035-1.018,5.515-2.701,6.918-5.701c0.056-0.119,0.313-0.211,0.473-0.206
		c4.905,0.188,9.762,0.741,14.515,2.034c0.125,0.034,0.26,0.031,0.388,0.047c0.009-0.063,0.017-0.124,0.025-0.188
		c-4.948-1.38-10.017-1.963-15.183-2.154c0.128-0.382,0.213-0.705,0.348-1.006c0.046-0.102,0.21-0.207,0.326-0.214
		c3.431-0.169,6.855-0.061,10.269,0.323c1.31,0.146,2.608,0.386,3.914,0.576c0.146,0.022,0.299,0.003,0.448,0.003
		c-0.002-0.055-0.004-0.109-0.007-0.164c-4.877-0.972-9.813-1.16-14.811-0.994c0.593-2.307,0.716-4.603,0.732-6.913
		c0.025-3.497-1.094-6.541-3.499-9.101c-0.107-0.115-0.181-0.353-0.144-0.5c0.628-2.469,0.363-4.871-0.468-7.244
		c-0.12-0.345-0.311-0.505-0.66-0.467c-0.632,0.069-1.275,0.091-1.888,0.238c-2.107,0.508-3.97,1.555-5.768,2.725
		c-0.262,0.169-0.486,0.218-0.8,0.147c-4.832-1.09-9.656-1.028-14.461,0.177c-0.296,0.074-0.51,0.038-0.755-0.128
		c-1.615-1.087-3.288-2.082-5.158-2.65c-0.917-0.279-1.894-0.365-2.85-0.492c-0.162-0.021-0.459,0.149-0.517,0.298
		c-0.981,2.564-1.243,5.176-0.401,7.833c0.094,0.294,0.072,0.481-0.138,0.719c-1.369,1.553-2.333,3.333-2.733,5.369
		c-0.632,3.219-0.331,6.397,0.556,9.536c0.038,0.133,0.072,0.27,0.119,0.443c-4.884-0.146-9.677,0.06-14.413,1.089
		c0.146,0.08,0.294,0.099,0.436,0.078c1.033-0.158,2.063-0.348,3.1-0.479c3.559-0.451,7.133-0.594,10.718-0.434
		c0.116,0.004,0.288,0.066,0.333,0.152c0.17,0.329,0.298,0.681,0.469,1.089c-5.096,0.207-10.075,0.783-14.919,2.243
		c0.142,0.077,0.276,0.077,0.401,0.042c4.679-1.272,9.459-1.824,14.289-2.039c0.281-0.012,0.432,0.07,0.572,0.317
		c1.021,1.797,2.465,3.178,4.244,4.213c1.801,1.05,3.755,1.686,5.787,2.094c0.984,0.197,1.978,0.341,3.032,0.521
		c-1.097,0.806-1.82,1.834-2.151,3.074c-0.174,0.653-0.522,0.972-1.116,1.13c-0.073,0.019-0.144,0.049-0.216,0.071
		c-2.156,0.693-4.209,0.619-5.966-0.979c-0.585-0.531-1.049-1.212-1.499-1.872c-0.809-1.187-1.802-2.123-3.183-2.594
		c-0.642-0.219-1.304-0.329-1.966-0.142C28.751,56.826,28.47,57,28.4,57.19c-0.053,0.146,0.138,0.453,0.302,0.593
		c0.297,0.251,0.643,0.457,0.991,0.634c0.945,0.479,1.7,1.164,2.269,2.05c0.328,0.509,0.633,1.034,0.927,1.564
		c1.587,2.863,4.044,4.114,7.273,3.919C40.928,65.903,41.69,65.785,42.468,65.698z"/>
	<path fill-rule="evenodd" clip-rule="evenodd" fill="#201F1F" d="M42.468,65.698c-0.777,0.087-1.54,0.205-2.305,0.252
		c-3.229,0.195-5.686-1.056-7.273-3.919c-0.294-0.53-0.6-1.056-0.927-1.564c-0.569-0.886-1.324-1.571-2.269-2.05
		c-0.349-0.177-0.694-0.383-0.991-0.634c-0.164-0.14-0.355-0.446-0.302-0.593c0.07-0.19,0.352-0.364,0.575-0.428
		c0.663-0.188,1.325-0.077,1.966,0.142c1.381,0.471,2.374,1.407,3.183,2.594c0.45,0.66,0.914,1.341,1.499,1.872
		c1.756,1.598,3.81,1.672,5.966,0.979c0.073-0.022,0.143-0.053,0.216-0.071c0.594-0.158,0.942-0.477,1.116-1.13
		c0.332-1.24,1.054-2.269,2.151-3.074c-1.054-0.18-2.048-0.323-3.032-0.521c-2.032-0.408-3.985-1.044-5.787-2.094
		c-1.779-1.035-3.223-2.416-4.244-4.213c-0.141-0.248-0.292-0.33-0.572-0.317c-4.83,0.215-9.61,0.767-14.289,2.039
		c-0.125,0.035-0.259,0.035-0.401-0.042c4.844-1.46,9.823-2.036,14.919-2.243c-0.171-0.408-0.299-0.76-0.469-1.089
		c-0.045-0.086-0.216-0.147-0.333-0.152c-3.585-0.16-7.159-0.017-10.718,0.434c-1.037,0.131-2.067,0.321-3.1,0.479
		c-0.142,0.021-0.29,0.002-0.436-0.078c4.735-1.029,9.528-1.235,14.413-1.089c-0.047-0.173-0.082-0.31-0.119-0.443
		c-0.887-3.139-1.188-6.317-0.556-9.536c0.4-2.036,1.364-3.815,2.733-5.369c0.21-0.238,0.231-0.425,0.138-0.719
		c-0.842-2.657-0.581-5.269,0.401-7.833c0.058-0.149,0.355-0.319,0.517-0.298c0.956,0.127,1.933,0.213,2.85,0.492
		c1.87,0.568,3.543,1.563,5.158,2.65c0.245,0.166,0.459,0.202,0.755,0.128c4.805-1.205,9.629-1.268,14.461-0.177
		c0.313,0.071,0.538,0.022,0.8-0.147c1.798-1.17,3.66-2.216,5.768-2.725c0.612-0.147,1.256-0.169,1.888-0.238
		c0.35-0.038,0.54,0.122,0.66,0.467c0.831,2.373,1.096,4.775,0.468,7.244c-0.037,0.148,0.036,0.385,0.144,0.5
		c2.405,2.56,3.524,5.604,3.499,9.101c-0.017,2.31-0.14,4.605-0.732,6.913c4.997-0.166,9.934,0.022,14.811,0.994
		c0.003,0.055,0.005,0.109,0.007,0.164c-0.149,0-0.302,0.019-0.448-0.003c-1.306-0.19-2.604-0.43-3.914-0.576
		c-3.413-0.384-6.838-0.492-10.269-0.323c-0.116,0.007-0.28,0.112-0.326,0.214c-0.135,0.301-0.22,0.624-0.348,1.006
		c5.166,0.191,10.234,0.774,15.183,2.154c-0.009,0.063-0.017,0.124-0.025,0.188c-0.128-0.016-0.263-0.013-0.388-0.047
		c-4.753-1.293-9.609-1.847-14.515-2.034c-0.159-0.005-0.417,0.087-0.473,0.206c-1.403,3-3.883,4.684-6.918,5.701
		c-1.834,0.615-3.727,0.945-5.642,1.167c-0.1,0.012-0.2,0.024-0.326,0.04c0.036,0.07,0.046,0.117,0.075,0.14
		c1.549,1.205,2.324,2.815,2.396,4.747c0.062,1.713,0.042,3.428,0.054,5.143c0.009,1.259-0.009,2.52,0.026,3.777
		c0.036,1.318,0.62,2.319,1.828,2.917c0.108,0.054,0.252,0.093,0.308,0.184c0.133,0.219,0.352,0.503,0.295,0.687
		c-0.058,0.187-0.396,0.389-0.623,0.405c-1.072,0.073-2.118-0.08-3.095-0.563c-1.319-0.65-1.952-1.738-1.962-3.183
		c-0.015-2.109,0-4.219,0.004-6.327c0.001-0.871-0.087-1.729-0.449-2.532c-0.113-0.249-0.288-0.47-0.435-0.703
		c-0.038,0.014-0.077,0.03-0.115,0.044c-0.008,0.157-0.021,0.314-0.021,0.473c0.001,3.702-0.01,7.404,0.016,11.107
		c0.004,0.58,0.102,1.184,0.283,1.734c0.118,0.36,0.427,0.685,0.718,0.953c0.274,0.252,0.522,0.484,0.428,0.878
		c-0.104,0.426-0.459,0.568-0.839,0.563c-1.071-0.016-2.002-0.448-2.825-1.104c-0.937-0.744-1.286-1.747-1.277-2.929
		c0.025-3.898,0.025-7.799,0.033-11.698c0.001-0.122,0.003-0.243,0-0.364c-0.007-0.316-0.081-0.59-0.472-0.585
		c-0.381,0.005-0.415,0.282-0.415,0.574c-0.001,2.413-0.003,4.825-0.003,7.238c0.001,1.548-0.03,3.098,0.019,4.644
		c0.075,2.359-1.366,3.646-3.279,4.136c-0.29,0.074-0.605,0.133-0.896,0.097c-0.242-0.029-0.594-0.156-0.665-0.333
		c-0.093-0.235,0.036-0.561,0.081-0.845c0.009-0.05,0.068-0.107,0.118-0.134c1.123-0.588,1.162-1.624,1.159-2.704
		c-0.01-3.764,0.002-7.527,0.005-11.289c0-0.163,0-0.325,0-0.487c-0.041-0.022-0.08-0.042-0.121-0.064
		c-0.15,0.204-0.38,0.389-0.436,0.615c-0.188,0.759-0.422,1.528-0.443,2.3c-0.058,2.047-0.078,4.099,0.003,6.145
		c0.125,3.101-1.876,4.11-4.073,4.337c-0.391,0.041-0.794,0.053-1.18-0.002c-0.207-0.028-0.535-0.215-0.549-0.354
		c-0.022-0.224,0.132-0.503,0.292-0.692c0.124-0.148,0.367-0.196,0.558-0.289c1.082-0.522,1.681-1.36,1.686-2.584
		c0.008-2.049,0.015-4.097,0.021-6.145C42.492,65.886,42.477,65.797,42.468,65.698z M51.068,56.543c1.304,0,2.609,0.044,3.912-0.009
		c1.759-0.073,3.506-0.265,5.199-0.795c2.074-0.648,3.744-1.802,4.64-3.852c0.819-1.878,1.064-3.857,0.722-5.874
		c-0.512-2.99-3.406-5.502-6.413-5.532c-1.907-0.02-3.817,0.06-5.721,0.193c-2.307,0.162-4.604,0.057-6.905-0.04
		c-1.782-0.073-3.57-0.114-5.352-0.057c-1.115,0.034-2.162,0.446-3.042,1.173c-2.343,1.935-3.244,4.392-2.729,7.4
		c0.518,3.028,2.22,5.051,5.062,6.129c0.789,0.3,1.61,0.539,2.436,0.719C45.575,56.588,48.323,56.614,51.068,56.543z M36.335,63.369
		c0.211-0.224,0.378-0.322,0.418-0.459c0.069-0.235-0.299-0.561-0.611-0.526c-0.141,0.016-0.267,0.172-0.399,0.265
		C35.918,62.86,36.091,63.072,36.335,63.369z M38.207,63.918c0.211-0.228,0.345-0.37,0.479-0.516
		c-0.194-0.134-0.373-0.325-0.588-0.386c-0.214-0.061-0.524,0.034-0.454,0.327C37.688,63.534,37.954,63.673,38.207,63.918z
		 M35.274,61.695c0.011-0.063,0.022-0.125,0.033-0.188c-0.217-0.172-0.422-0.363-0.661-0.495c-0.045-0.025-0.317,0.187-0.32,0.293
		c-0.006,0.337,0.208,0.572,0.544,0.604C34.998,61.923,35.139,61.773,35.274,61.695z M40.197,63.935
		c0.252-0.22,0.418-0.362,0.583-0.506c-0.173-0.132-0.343-0.364-0.522-0.372c-0.179-0.007-0.366,0.21-0.551,0.33
		C39.848,63.544,39.989,63.7,40.197,63.935z M33.107,59.722c0.083,0.406,0.221,0.663,0.568,0.648
		c0.095-0.004,0.265-0.223,0.256-0.329c-0.026-0.304-0.189-0.564-0.536-0.556C33.286,59.487,33.181,59.658,33.107,59.722z
		 M32.96,58.728c-0.29-0.224-0.455-0.379-0.649-0.479c-0.043-0.021-0.189,0.155-0.287,0.24c0.144,0.152,0.271,0.33,0.442,0.441
		C32.527,58.969,32.694,58.843,32.96,58.728z M42.327,62.625c-0.047-0.046-0.094-0.091-0.142-0.138
		c-0.16,0.146-0.32,0.292-0.48,0.438c0.135,0.146,0.271,0.293,0.407,0.439c0.042-0.031,0.083-0.062,0.123-0.093
		C42.266,63.057,42.297,62.84,42.327,62.625z M31.204,57.347c-0.141,0.155-0.218,0.24-0.295,0.326
		c0.144,0.107,0.278,0.236,0.438,0.312c0.043,0.021,0.162-0.12,0.247-0.188C31.479,57.665,31.366,57.533,31.204,57.347z"/>
	<path fill-rule="evenodd" clip-rule="evenodd" fill="#F4CAB2" d="M51.096,56.489c-2.746,0.07-5.493,0.045-8.192-0.545
		c-0.825-0.179-1.646-0.419-2.436-0.718c-2.841-1.079-4.542-3.102-5.06-6.13c-0.515-3.009,0.385-5.465,2.729-7.4
		c0.88-0.726,1.927-1.139,3.042-1.173c1.781-0.057,3.569-0.017,5.352,0.058c2.302,0.096,4.598,0.202,6.904,0.04
		c1.903-0.134,3.816-0.214,5.722-0.194c3.006,0.031,5.902,2.543,6.412,5.532c0.344,2.015,0.1,3.996-0.722,5.875
		c-0.894,2.049-2.563,3.202-4.639,3.852c-1.692,0.529-3.44,0.721-5.199,0.794C53.706,56.533,52.399,56.489,51.096,56.489z
		 M56.878,47.668c-0.001,0.952,0.253,1.756,0.738,2.33c0.771,0.914,1.901,0.903,2.649-0.023c0.949-1.174,0.97-3.313,0.046-4.51
		c-0.813-1.054-2.04-1.031-2.809,0.061C57.05,46.166,56.86,46.889,56.878,47.668z M44.627,47.817
		c0.001-0.987-0.296-1.885-0.77-2.449c-0.746-0.889-1.83-0.902-2.589-0.033c-1.021,1.167-1.041,3.464-0.04,4.653
		c0.801,0.951,1.951,0.919,2.705-0.076C44.431,49.257,44.583,48.494,44.627,47.817z M50.608,54.953
		c0.699-0.021,1.273-0.361,1.615-1.043c0.061-0.125-0.006-0.315-0.016-0.477c-0.12,0.086-0.256,0.155-0.358,0.26
		c-0.115,0.117-0.184,0.279-0.301,0.394c-0.721,0.71-1.782,0.521-2.348-0.39c-0.072-0.118-0.26-0.163-0.394-0.242
		c0.002,0.149-0.048,0.326,0.015,0.445C49.18,54.593,49.756,54.95,50.608,54.953z M51.285,51.669
		c-0.011-0.428-0.323-0.724-0.761-0.72c-0.434,0.004-0.744,0.312-0.744,0.737c0,0.429,0.365,0.783,0.784,0.761
		C50.973,52.428,51.295,52.081,51.285,51.669z"/>
	<path fill-rule="evenodd" clip-rule="evenodd" fill="#9EDAF0" d="M36.335,63.369c-0.244-0.297-0.417-0.509-0.592-0.721
		c0.133-0.093,0.259-0.249,0.399-0.265c0.312-0.034,0.68,0.291,0.611,0.526C36.714,63.047,36.547,63.146,36.335,63.369z"/>
	<path fill-rule="evenodd" clip-rule="evenodd" fill="#9EDAF0" d="M38.207,63.918c-0.253-0.245-0.519-0.384-0.563-0.574
		c-0.07-0.293,0.24-0.388,0.454-0.327c0.215,0.061,0.394,0.252,0.588,0.386C38.552,63.548,38.418,63.69,38.207,63.918z"/>
	<path fill-rule="evenodd" clip-rule="evenodd" fill="#9EDAF0" d="M35.274,61.695c-0.135,0.078-0.277,0.228-0.403,0.215
		c-0.336-0.032-0.55-0.268-0.544-0.604c0.002-0.106,0.275-0.318,0.32-0.293c0.238,0.132,0.444,0.323,0.661,0.495
		C35.297,61.57,35.286,61.633,35.274,61.695z"/>
	<path fill-rule="evenodd" clip-rule="evenodd" fill="#9EDAF0" d="M40.197,63.935c-0.208-0.234-0.349-0.391-0.49-0.548
		c0.185-0.12,0.372-0.337,0.551-0.33c0.179,0.008,0.349,0.24,0.522,0.372C40.615,63.572,40.45,63.715,40.197,63.935z"/>
	<path fill-rule="evenodd" clip-rule="evenodd" fill="#9EDAF0" d="M33.107,59.722c0.073-0.063,0.178-0.234,0.288-0.236
		c0.347-0.009,0.51,0.252,0.536,0.556c0.009,0.106-0.161,0.325-0.256,0.329C33.329,60.385,33.191,60.128,33.107,59.722z"/>
	<path fill-rule="evenodd" clip-rule="evenodd" fill="#9EDAF0" d="M32.96,58.728c-0.267,0.115-0.434,0.241-0.493,0.203
		c-0.171-0.111-0.298-0.289-0.442-0.441c0.098-0.085,0.243-0.262,0.287-0.24C32.506,58.349,32.67,58.504,32.96,58.728z"/>
	<path fill-rule="evenodd" clip-rule="evenodd" fill="#9EDAF0" d="M42.327,62.625c-0.03,0.215-0.062,0.432-0.092,0.646
		c-0.041,0.031-0.082,0.062-0.123,0.093c-0.135-0.146-0.271-0.293-0.407-0.439c0.16-0.146,0.32-0.292,0.48-0.438
		C42.233,62.534,42.28,62.579,42.327,62.625z"/>
	<path fill-rule="evenodd" clip-rule="evenodd" fill="#9EDAF0" d="M31.204,57.347c0.162,0.187,0.275,0.318,0.389,0.45
		c-0.084,0.067-0.204,0.209-0.247,0.188c-0.16-0.075-0.294-0.204-0.438-0.312C30.986,57.587,31.063,57.502,31.204,57.347z"/>
	<path fill-rule="evenodd" clip-rule="evenodd" fill="#FFFFFF" d="M58.292,46.942c-0.404,0.001-0.59-0.215-0.628-0.551
		c-0.037-0.314,0.275-0.62,0.598-0.599c0.354,0.024,0.566,0.244,0.566,0.582C58.826,46.711,58.623,46.929,58.292,46.942z"/>
	<path fill-rule="evenodd" clip-rule="evenodd" fill="#FFFFFF" d="M42.282,46.397c-0.014,0.35-0.349,0.65-0.701,0.625
		c-0.336-0.026-0.623-0.343-0.608-0.673c0.016-0.333,0.326-0.634,0.655-0.633C41.976,45.716,42.296,46.05,42.282,46.397z"/>
	<ellipse fill="#FFFFFF" cx="42.386" cy="47.687" rx="2.709" ry="3.962"/>
	<ellipse fill="#FFFFFF" cx="59.036" cy="47.708" rx="2.709" ry="3.838"/>
	<g>
		<path fill-rule="evenodd" clip-rule="evenodd" fill="#AD5C52" d="M56.851,47.723c-0.017-0.781,0.172-1.502,0.623-2.142
			c0.771-1.092,1.996-1.115,2.81-0.061c0.925,1.197,0.903,3.335-0.046,4.51c-0.746,0.927-1.877,0.937-2.647,0.024
			C57.104,49.478,56.849,48.674,56.851,47.723z M58.292,46.942c0.331-0.013,0.534-0.231,0.536-0.568
			c0-0.338-0.212-0.558-0.566-0.582c-0.322-0.021-0.635,0.285-0.598,0.599C57.702,46.727,57.888,46.943,58.292,46.942z"/>
		<path fill-rule="evenodd" clip-rule="evenodd" fill="#AD5C52" d="M44.601,47.871c-0.045,0.678-0.197,1.442-0.694,2.097
			c-0.754,0.995-1.904,1.025-2.705,0.075c-1.001-1.189-0.982-3.485,0.04-4.653c0.759-0.868,1.842-0.854,2.588,0.033
			C44.305,45.986,44.601,46.885,44.601,47.871z M42.282,46.397c0.014-0.347-0.306-0.681-0.653-0.681
			c-0.329-0.001-0.64,0.3-0.655,0.633c-0.015,0.33,0.272,0.647,0.608,0.673C41.933,47.047,42.269,46.747,42.282,46.397z"/>
		<path fill-rule="evenodd" clip-rule="evenodd" fill="#AD5C52" d="M50.58,55.008c-0.852-0.003-1.429-0.36-1.785-1.053
			c-0.062-0.12-0.012-0.296-0.014-0.445c0.134,0.078,0.32,0.124,0.394,0.241c0.563,0.911,1.626,1.1,2.347,0.392
			c0.117-0.114,0.186-0.277,0.301-0.395c0.102-0.104,0.236-0.174,0.359-0.259c0.007,0.16,0.076,0.351,0.014,0.475
			C51.853,54.646,51.28,54.986,50.58,55.008z"/>
		<path fill-rule="evenodd" clip-rule="evenodd" fill="#AD5C52" d="M51.257,51.724c0.01,0.412-0.311,0.758-0.72,0.778
			c-0.42,0.021-0.784-0.333-0.784-0.761c0-0.426,0.312-0.734,0.744-0.738C50.935,51,51.248,51.296,51.257,51.724z"/>
	</g>
</g>
</svg>
