<?xml version="1.0" encoding="utf-8"?>
<!-- Generator: Adobe Illustrator 16.0.0, SVG Export Plug-In . SVG Version: 6.00 Build 0)  -->
<!DOCTYPE svg PUBLIC "-//W3C//DTD SVG 1.1//EN" "http://www.w3.org/Graphics/SVG/1.1/DTD/svg11.dtd">
<svg version="1.1" id="Layer_1" xmlns="http://www.w3.org/2000/svg" xmlns:xlink="http://www.w3.org/1999/xlink" x="0px" y="0px"
	 width="100px" height="100px" viewBox="0 0 100 100" enable-background="new 0 0 100 100" xml:space="preserve">
<circle fill="none" stroke="#D1D3D4" stroke-width="3" stroke-miterlimit="10" cx="50" cy="50.122" r="47.287"/>
<g transform="translate(0 -1)">
	<path fill="#007AAA" d="M35.121,29.176c2.822,0,5.196,2.375,5.196,5.196c0,2.97-2.524,5.271-5.196,5.196
		c-2.746,0.075-5.197-2.227-5.197-5.196C29.85,31.477,32.226,29.176,35.121,29.176"/>
	<path fill="#007AAA" d="M38.017,71.49h-5.939c-0.817,0-1.486-0.668-1.486-1.484V44.023c0-0.817,0.594-1.484,1.412-1.484h6.013
		c0.816,0,1.484,0.667,1.484,1.484V70.08C39.501,70.822,38.833,71.49,38.017,71.49"/>
	<path fill="#007AAA" d="M72.909,51.596c0-5.494-4.084-9.799-9.577-9.799h-1.559c-2.97,0-5.865,1.411-7.425,3.711
		c-0.52,0.52-0.742,0.743-0.742,0.743v-2.97c0-0.297-0.446-0.742-0.743-0.742H45.44c-0.297,0-0.743,0.297-0.743,0.667v27.689
		c0,0.297,0.446,0.594,0.743,0.594h8.166c0.297,0,0.742-0.297,0.742-0.594V54.861c0-2.746,2.079-5.047,4.826-5.122
		c1.41,0,2.672,0.52,3.637,1.485c0.893,0.891,1.262,2.152,1.262,3.563v15.961c0,0.297,0.446,0.742,0.744,0.742h7.423
		c0.297,0,0.742-0.445,0.742-0.742V51.596H72.909z"/>
</g>
</svg>
