<?xml version="1.0" encoding="utf-8"?>
<!-- Generator: Adobe Illustrator 16.0.0, SVG Export Plug-In . SVG Version: 6.00 Build 0)  -->
<!DOCTYPE svg PUBLIC "-//W3C//DTD SVG 1.1//EN" "http://www.w3.org/Graphics/SVG/1.1/DTD/svg11.dtd">
<svg version="1.1" id="Capa_1" xmlns="http://www.w3.org/2000/svg" xmlns:xlink="http://www.w3.org/1999/xlink" x="0px" y="0px"
	 width="512px" height="512px" viewBox="0 0 512 512" enable-background="new 0 0 512 512" xml:space="preserve">
<g>
	<g>
		<path fill="#FFFFFF" d="M434.068,315.332l-44.087,47.328C384.283,344.34,367.171,331,347,331h-70.295
			c-9.701,0-19.057-3.529-26.34-9.939c-39.172-34.472-98.053-34.774-137.595-0.953C104.616,308.563,91.179,301,76,301H15
			c-8.284,0-15,6.716-15,15v181c0,8.284,6.716,15,15,15h61c13.471,0,25.57-5.958,33.824-15.368
			C141.531,505.544,171.192,512,212.063,512H347c32.873,0,64.275-15.701,84.045-42.059l71.965-96.952
			c0.002-0.003,0.004-0.005,0.005-0.007c0.007-0.008,0.014-0.019,0.021-0.027l0.023-0.032c0.003-0.005,0.007-0.01,0.01-0.014
			C508.91,365.087,512,355.785,512,346C512,305.143,461.738,285.629,434.068,315.332z M91,467c0,8.271-6.729,15-15,15H30V331h46
			c8.271,0,15,6.729,15,15V467z M479.015,354.982c-0.007,0.01-0.013,0.021-0.021,0.029c-0.008,0.01-0.018,0.021-0.024,0.03L407,452
			c-14.089,18.785-36.519,30-60,30H212.063c-35.174,0-62.814-5.392-91.304-13.4c0.06-1.72,0.041,7.514,0.041-115.818l10.653-9.198
			c28.246-24.856,70.847-24.856,99.095,0C243.312,354.814,259.703,361,276.705,361H347c8.271,0,15,6.729,15,15s-6.729,15-15,15
			H239.394c-8.284,0-15,6.716-15,15s6.716,15,15,15h117.66c12.444,0,24.445-5.222,32.929-14.328l66.037-70.893
			c2.872-3.082,6.771-4.779,10.98-4.779C479.357,331,486.375,345.171,479.015,354.982z"/>
	</g>
</g>
<g>
	<g>
		<path fill="#FFFFFF" d="M347,150c-8.271,0-15-6.729-15-15c0-6.042,3.596-11.468,9.159-13.825
			c6.717-2.844,14.756-0.417,22.059,6.659c5.951,5.764,15.445,5.614,21.211-0.335c5.765-5.95,5.614-15.446-0.336-21.21
			c-6.771-6.561-14.3-11.198-22.093-13.815V75c0-8.284-6.716-15-15-15s-15,6.716-15,15v17.571c-18.373,6.537-30,23.651-30,42.429
			c0,24.813,20.188,45,45,45c8.271,0,15,6.729,15,15c0,6.286-3.965,11.953-9.866,14.103c-7.7,2.806-16.674-0.999-24.605-10.444
			c-5.327-6.343-14.789-7.167-21.135-1.839c-6.344,5.328-7.167,14.79-1.839,21.134c8.109,9.654,17.55,16.275,27.445,19.608V255
			c0,8.284,6.716,15,15,15s15-6.716,15-15v-17.573c0.134-0.047,0.268-0.088,0.401-0.136C380.105,230.843,392,213.847,392,195
			C392,170.187,371.813,150,347,150z"/>
	</g>
</g>
<g>
	<g>
		<path fill="#FFFFFF" d="M347,0c-90.981,0-165,74.019-165,165s74.019,165,165,165c90.981,0,165-74.019,165-165S437.981,0,347,0z
			 M347,300c-74.439,0-135-60.561-135-135S272.561,30,347,30s135,60.561,135,135S421.439,300,347,300z"/>
	</g>
</g>
</svg>
