<?xml version="1.0" encoding="utf-8"?>
<!-- Generator: Adobe Illustrator 16.0.0, SVG Export Plug-In . SVG Version: 6.00 Build 0)  -->
<!DOCTYPE svg PUBLIC "-//W3C//DTD SVG 1.1//EN" "http://www.w3.org/Graphics/SVG/1.1/DTD/svg11.dtd">
<svg version="1.1" id="Layer_1" xmlns="http://www.w3.org/2000/svg" xmlns:xlink="http://www.w3.org/1999/xlink" x="0px" y="0px"
	 width="512px" height="512px" viewBox="0 0 512 512" enable-background="new 0 0 512 512" xml:space="preserve">
<g>
	<g>
		<path fill="#FFFFFF" d="M475.549,235.426c9.434-9.198,12.763-22.696,8.691-35.227c-4.071-12.534-14.696-21.495-27.739-23.388
			l-114.019-16.569c-2.239-0.323-4.173-1.73-5.176-3.758l-50.99-103.318c-5.831-11.816-17.638-19.156-30.814-19.156
			c-13.178,0-24.986,7.34-30.815,19.156l-50.992,103.318c-1.002,2.028-2.936,3.435-5.175,3.761L54.502,176.811
			c-13.04,1.893-23.667,10.854-27.741,23.388c-4.074,12.531-0.741,26.029,8.697,35.227l82.504,80.42
			c1.618,1.578,2.359,3.858,1.977,6.087l-19.477,113.556c-2.227,12.987,3.01,25.866,13.671,33.612
			c10.658,7.745,24.528,8.747,36.191,2.615l101.979-53.615c2.002-1.048,4.394-1.048,6.396,0l101.984,53.615
			c5.067,2.667,10.56,3.984,16.02,3.984c7.093,0,14.146-2.224,20.167-6.6c10.661-7.746,15.896-20.63,13.673-33.612l-19.479-113.556
			c-0.382-2.229,0.356-4.509,1.975-6.087L475.549,235.426z M363.972,326.579l19.475,113.561c0.651,3.802-1.694,5.97-2.732,6.723
			c-1.038,0.754-3.826,2.315-7.236,0.52l-101.984-53.615c-5.002-2.627-10.498-3.95-15.988-3.95c-5.494,0-10.987,1.323-15.992,3.95
			l-101.982,53.615c-3.413,1.791-6.198,0.234-7.237-0.524c-1.041-0.753-3.386-2.921-2.735-6.723l19.478-113.556
			c1.914-11.15-1.781-22.519-9.882-30.416L54.65,215.739c-2.763-2.691-2.138-5.824-1.74-7.045c0.396-1.222,1.732-4.125,5.549-4.676
			l114.017-16.569c11.193-1.626,20.867-8.653,25.874-18.798l50.992-103.32c1.705-3.456,4.878-3.83,6.163-3.83
			c1.281,0,4.452,0.372,6.162,3.83v0.002l50.989,103.318c5.008,10.147,14.682,17.172,25.871,18.8l114.021,16.567
			c3.816,0.555,5.149,3.455,5.546,4.679c0.397,1.221,1.027,4.354-1.735,7.045l-82.505,80.421
			C365.752,304.061,362.059,315.429,363.972,326.579z"/>
	</g>
</g>
</svg>
