<?xml version="1.0" encoding="utf-8"?>
<!-- Generator: Adobe Illustrator 16.0.0, SVG Export Plug-In . SVG Version: 6.00 Build 0)  -->
<!DOCTYPE svg PUBLIC "-//W3C//DTD SVG 1.1//EN" "http://www.w3.org/Graphics/SVG/1.1/DTD/svg11.dtd">
<svg version="1.1" id="Capa_1" xmlns="http://www.w3.org/2000/svg" xmlns:xlink="http://www.w3.org/1999/xlink" x="0px" y="0px"
	 width="512px" height="512px" viewBox="0 0 512 512" enable-background="new 0 0 512 512" xml:space="preserve">
<path fill="#FFFFFF" d="M510.936,438.723c-9.845-57.656-35.922-110.125-73.429-147.742c-20.455-20.517-43.829-36.064-68.737-46.063
	c0.053-0.048,0.104-0.099,0.157-0.148c-7.939-2.284-16.09-4.154-24.404-5.621C373.566,214.188,392,177.209,392,136
	C392,61.01,330.991,0,256,0S120,61.01,120,136c0,44.509,21.492,84.092,54.643,108.918c-30.371,9.998-58.871,25.546-83.813,46.063
	c-45.732,37.617-77.529,90.086-89.532,147.742c-3.762,18.066,0.744,36.622,12.363,50.908C25.221,503.847,42.364,512,60.693,512
	H131.5c11.046,0,20-8.954,20-20s-8.954-20-20-20H60.693c-8.538,0-13.689-4.765-15.999-7.606c-3.988-4.905-5.533-11.29-4.236-17.519
	c17.271-82.961,81.07-147.296,160.515-167.977c1.234-0.376,2.502-0.725,3.837-1.026c0.617-0.14,1.231-0.247,1.847-0.376
	c2.924-0.678,5.867-1.303,8.829-1.862c18.316-5.213,38.839-8.134,60.514-8.134c28.927,0,55.803,5.202,78.116,14.113
	c0.087-0.083,0.18-0.158,0.266-0.242c61.784,23.004,110.799,85.625,124.437,165.504c1.063,6.229-0.203,12.613-3.474,17.519
	c-1.895,2.842-6.118,7.606-13.122,7.606h-58.07c-9.06,0-16.403,8.954-16.403,20s7.344,20,16.403,20h58.07
	c15.033,0,29.093-8.153,38.573-22.369C510.325,475.345,514.021,456.789,510.936,438.723z M256,41.033
	c52.418,0,94.909,42.493,94.909,94.91s-42.491,94.91-94.909,94.91c-52.417,0-94.91-42.493-94.91-94.91S203.583,41.033,256,41.033z"
	/>
</svg>
