<?xml version="1.0" encoding="utf-8"?>
<!-- Generator: Adobe Illustrator 16.0.0, SVG Export Plug-In . SVG Version: 6.00 Build 0)  -->
<!DOCTYPE svg PUBLIC "-//W3C//DTD SVG 1.1//EN" "http://www.w3.org/Graphics/SVG/1.1/DTD/svg11.dtd">
<svg version="1.1" id="Layer_1" xmlns="http://www.w3.org/2000/svg" xmlns:xlink="http://www.w3.org/1999/xlink" x="0px" y="0px"
	 width="100px" height="100px" viewBox="0 0 100 100" enable-background="new 0 0 100 100" xml:space="preserve">
<circle fill-rule="evenodd" clip-rule="evenodd" fill="none" stroke="#D1D3D4" stroke-width="3" stroke-miterlimit="10" cx="50" cy="50.122" r="47.287"/>
<g>
	<path fill-rule="evenodd" clip-rule="evenodd" fill="#F48023" d="M74.005,42.106c-1.067,0.801-1.986,1.589-3.017,2.192
		c-0.236,0.137-0.999-0.25-1.26-0.592c-2.914-3.825-5.779-7.688-8.656-11.542c-1.369-1.833-2.718-3.682-4.112-5.497
		c-0.464-0.605-0.499-1.024,0.184-1.481c0.883-0.593,1.718-1.257,2.711-1.99C64.591,29.526,69.249,35.751,74.005,42.106z"/>
	<path fill-rule="evenodd" clip-rule="evenodd" fill="#F48023" d="M50.124,66.743c-3.547,0-7.096-0.036-10.643,0.02
		c-1.102,0.018-1.476-0.336-1.445-1.445c0.098-3.619-0.439-3.062,3.004-3.076c6.535-0.026,13.071,0.021,19.605-0.033
		c1.229-0.01,1.631,0.354,1.591,1.589c-0.113,3.438,0.421,2.91-3.01,2.939C56.192,66.763,53.158,66.743,50.124,66.743z"/>
	<path fill-rule="evenodd" clip-rule="evenodd" fill="#F48023" d="M62.812,56.796c-0.256,1.253-0.427,2.12-0.612,2.984
		c-0.231,1.078-1.043,0.59-1.576,0.481c-4.607-0.933-9.205-1.916-13.805-2.89c-2.322-0.489-4.64-1.011-6.968-1.466
		c-0.845-0.166-1.037-0.521-0.857-1.355c0.664-3.1,0.643-3.131,3.897-2.461c6.291,1.297,12.578,2.612,18.859,3.962
		C62.191,56.146,62.558,56.61,62.812,56.796z"/>
	<path fill-rule="evenodd" clip-rule="evenodd" fill="#F48023" d="M41.968,44.484c0.615-1.332,1.178-2.547,1.834-3.965
		c7.185,3.326,14.276,6.61,21.512,9.958c-0.545,1.167-1.034,2.21-1.52,3.255c-0.41,0.882-0.989,0.422-1.515,0.18
		c-4.158-1.919-8.313-3.845-12.465-5.772C47.238,46.943,44.663,45.739,41.968,44.484z"/>
	<path fill-rule="evenodd" clip-rule="evenodd" fill="#F48023" d="M69.082,45.613c-0.853,1.012-1.539,1.958-2.378,2.741
		c-0.221,0.205-1.042,0.08-1.356-0.175c-4.387-3.572-8.733-7.191-13.089-10.802c-1.362-1.13-2.718-2.266-4.221-3.518
		c0.971-1.148,1.855-2.196,2.821-3.342C56.94,35.555,62.906,40.497,69.082,45.613z"/>
	<polygon fill-rule="evenodd" clip-rule="evenodd" fill="#BCBBBB" points="33.542,58.134 33.542,72.318 67.465,72.318 
		67.465,58.134 72.193,58.134 72.193,77.047 28.745,77.047 28.745,58.134 	"/>
</g>
</svg>
