<?xml version="1.0" encoding="utf-8"?>
<!-- Generator: Adobe Illustrator 16.0.0, SVG Export Plug-In . SVG Version: 6.00 Build 0)  -->
<!DOCTYPE svg PUBLIC "-//W3C//DTD SVG 1.1//EN" "http://www.w3.org/Graphics/SVG/1.1/DTD/svg11.dtd">
<svg version="1.1" id="Layer_1" xmlns="http://www.w3.org/2000/svg" xmlns:xlink="http://www.w3.org/1999/xlink" x="0px" y="0px"
	 width="512px" height="512px" viewBox="0 0 512 512" enable-background="new 0 0 512 512" xml:space="preserve">
<g>
	<g>
		<path fill="#FD0051" stroke="#FD0051" stroke-width="7" stroke-miterlimit="10" d="M378.467,159.873h-62.232v-12.447
			c0-13.729-11.165-24.894-24.895-24.894h-74.68c-13.729,0-24.894,11.164-24.894,24.894v12.447h-62.233
			c-13.73,0-24.894,11.164-24.894,24.893v161.807c0,13.729,11.164,24.894,24.894,24.894h248.934
			c13.729,0,24.894-11.164,24.894-24.894V184.766C403.36,171.037,392.196,159.873,378.467,159.873z M204.213,147.426
			c0-6.862,5.586-12.447,12.447-12.447h74.68c6.861,0,12.447,5.585,12.447,12.447v12.447h-99.574V147.426z M390.914,346.574
			c0,6.86-5.586,12.446-12.446,12.446H129.534c-6.861,0-12.446-5.586-12.446-12.446v-90.59c3.675,2.145,7.892,3.463,12.446,3.463
			h99.573v18.67c0,3.439,2.784,6.224,6.224,6.224h37.34c3.439,0,6.224-2.784,6.224-6.224v-18.67h99.573
			c4.555,0,8.771-1.318,12.446-3.463V346.574L390.914,346.574z M241.554,271.894V247h24.894v24.894H241.554z M390.914,234.553
			c0,6.861-5.586,12.447-12.446,12.447h-99.574v-6.224c0-3.44-2.783-6.224-6.223-6.224H235.33c-3.439,0-6.224,2.784-6.224,6.224V247
			h-99.573c-6.861,0-12.446-5.585-12.446-12.447v-49.787c0-6.861,5.585-12.446,12.446-12.446h248.934
			c6.86,0,12.446,5.585,12.446,12.446V234.553z"/>
	</g>
</g>
<path fill="#FD0051" d="M256,9C119.033,9,8,120.033,8,257s111.033,248,248,248s248-111.033,248-248S392.967,9,256,9z M256,486.194
	C129.419,486.194,26.806,383.58,26.806,257C26.806,130.419,129.419,27.806,256,27.806c126.58,0,229.194,102.613,229.194,229.194
	C485.194,383.58,382.58,486.194,256,486.194z"/>
</svg>
