<?xml version="1.0" encoding="utf-8"?>
<!-- Generator: Adobe Illustrator 16.0.0, SVG Export Plug-In . SVG Version: 6.00 Build 0)  -->
<!DOCTYPE svg PUBLIC "-//W3C//DTD SVG 1.1//EN" "http://www.w3.org/Graphics/SVG/1.1/DTD/svg11.dtd">
<svg version="1.1" id="Layer_1" xmlns="http://www.w3.org/2000/svg" xmlns:xlink="http://www.w3.org/1999/xlink" x="0px" y="0px"
	 width="100px" height="100px" viewBox="0 0 100 100" enable-background="new 0 0 100 100" xml:space="preserve">
<circle fill="none" stroke="#D1D3D4" stroke-width="3" stroke-miterlimit="10" cx="50" cy="50.122" r="47.287"/>
<path fill="#03A9F4" d="M76.011,36.612c-1.86,0.816-3.843,1.357-5.908,1.62c2.125-1.27,3.748-3.264,4.511-5.668
	c-1.981,1.182-4.171,2.017-6.503,2.482c-1.882-2.003-4.564-3.245-7.49-3.245c-5.679,0-10.248,4.608-10.248,10.258
	c0,0.813,0.067,1.594,0.237,2.338c-8.525-0.416-16.069-4.501-21.137-10.726c-0.884,1.535-1.403,3.292-1.403,5.184
	c0,3.551,1.829,6.7,4.555,8.522c-1.648-0.031-3.265-0.509-4.634-1.263c0,0.031,0,0.072,0,0.112c0,4.983,3.555,9.123,8.216,10.076
	c-0.834,0.229-1.744,0.338-2.688,0.338c-0.657,0-1.319-0.037-1.941-0.176c1.329,4.062,5.099,7.047,9.582,7.145
	c-3.489,2.729-7.919,4.373-12.715,4.373c-0.841,0-1.647-0.037-2.454-0.14c4.542,2.929,9.926,4.601,15.731,4.601
	c18.871,0,29.187-15.631,29.187-29.18c0-0.453-0.016-0.891-0.037-1.325C72.906,40.492,74.616,38.688,76.011,36.612z"/>
</svg>
